<?xml version="1.0" standalone="no"?>
<!DOCTYPE svg PUBLIC "-//W3C//DTD SVG 20010904//EN"
 "http://www.w3.org/TR/2001/REC-SVG-20010904/DTD/svg10.dtd">
<svg version="1.0" xmlns="http://www.w3.org/2000/svg"
 width="1232.000000pt" height="1232.000000pt" viewBox="0 0 1232.000000 1232.000000"
 preserveAspectRatio="xMidYMid meet">
<metadata>
Created by potrace 1.14, written by Peter Selinger 2001-2017
</metadata>
<g transform="translate(0.000000,1232.000000) scale(0.100000,-0.100000)"
fill="#000000" stroke="none">
<path d="M5680 12133 c-8 -3 -22 -7 -30 -10 -8 -4 -18 -5 -22 -5 -5 1 -8 -2
-8 -8 0 -5 -3 -9 -7 -8 -14 4 -99 -55 -114 -78 -21 -34 -153 -228 -159 -234
-6 -6 -25 -39 -53 -93 -11 -23 -24 -44 -27 -47 -4 -3 -23 -46 -43 -95 -20 -50
-52 -126 -72 -170 -59 -129 -70 -155 -118 -265 -78 -182 -174 -411 -222 -530
-25 -63 -50 -124 -55 -135 -5 -11 -35 -83 -65 -160 -31 -77 -63 -155 -71 -172
-8 -18 -26 -63 -40 -100 -13 -38 -29 -77 -34 -88 -5 -11 -34 -83 -63 -160 -30
-77 -58 -149 -62 -160 -5 -11 -9 -22 -10 -25 -1 -3 -5 -14 -10 -25 -4 -11 -54
-141 -111 -290 -56 -148 -108 -283 -115 -300 -7 -16 -13 -34 -15 -40 -1 -5
-21 -57 -44 -115 -23 -58 -43 -109 -44 -115 -3 -10 -15 -42 -39 -100 -6 -16
-12 -32 -12 -35 -1 -8 -57 -153 -76 -197 -11 -23 -19 -46 -19 -50 0 -4 -7 -21
-15 -37 -9 -16 -13 -31 -10 -34 3 -3 1 -10 -4 -16 -8 -10 -139 -345 -146 -371
-1 -5 -8 -23 -14 -40 -7 -16 -26 -64 -41 -105 -115 -303 -152 -398 -161 -415
-5 -12 -11 -27 -13 -35 -2 -8 -8 -26 -14 -40 -5 -14 -15 -37 -20 -51 -9 -24
-20 -29 -81 -40 -39 -7 -71 -16 -71 -20 0 -5 -6 -6 -14 -3 -11 4 -236 -47
-276 -63 -17 -7 -29 -11 -50 -16 -53 -14 -76 -20 -85 -26 -5 -3 -19 -7 -30 -8
-11 -2 -24 -8 -29 -13 -6 -6 -16 -10 -22 -10 -7 0 -25 -5 -41 -12 -15 -6 -30
-12 -33 -13 -3 -1 -18 -7 -33 -13 -16 -7 -30 -12 -32 -12 -27 0 -402 -189
-525 -265 -87 -54 -250 -200 -250 -224 0 -5 -6 -16 -13 -23 -8 -7 -25 -43 -40
-78 -39 -98 -50 -193 -34 -285 10 -54 73 -185 109 -225 13 -14 34 -42 48 -62
14 -21 28 -38 33 -38 4 0 7 -4 7 -10 0 -5 16 -35 36 -66 50 -78 105 -184 96
-184 -4 0 -2 -4 4 -8 10 -6 79 -179 90 -222 2 -8 10 -40 18 -70 22 -82 38
-172 52 -290 16 -132 8 -534 -13 -625 -2 -11 -6 -31 -9 -45 -3 -14 -7 -33 -10
-42 -3 -9 -6 -25 -8 -35 -4 -17 -26 -80 -46 -128 -5 -11 -29 -73 -55 -138 -26
-65 -53 -130 -61 -145 -8 -15 -14 -30 -14 -34 0 -4 -14 -36 -30 -71 -17 -36
-30 -67 -30 -70 0 -15 -246 -520 -297 -612 -43 -76 -96 -150 -140 -198 -42
-45 -50 -61 -60 -116 -12 -73 -8 -100 23 -148 30 -46 62 -67 131 -88 75 -23
121 -19 188 16 58 30 143 116 137 139 -1 6 2 10 8 10 5 0 10 4 10 8 0 5 20 45
44 90 24 45 41 82 38 82 -4 0 -2 4 3 8 12 9 135 255 135 271 0 6 5 11 12 11 6
0 8 3 5 7 -4 3 -2 12 4 20 6 7 8 13 4 13 -4 0 -2 7 5 15 7 8 9 15 5 15 -4 0
-2 6 4 13 6 8 17 33 25 56 9 23 22 56 29 74 18 41 66 159 72 177 1 3 7 18 13
33 7 16 12 31 12 34 0 3 6 19 14 36 13 29 27 65 31 77 1 3 7 19 14 35 8 17 17
39 21 50 4 11 33 85 64 165 65 170 73 192 76 205 1 6 9 26 17 45 8 19 35 89
59 155 24 66 48 129 53 140 5 11 14 34 19 50 26 76 104 292 123 340 7 17 14
39 16 50 2 11 6 27 9 35 17 41 79 216 106 300 17 52 33 100 36 105 4 6 7 16 8
23 2 11 66 202 81 242 7 18 10 29 17 55 2 11 10 34 17 50 6 17 13 35 15 40 1
6 19 55 39 110 20 55 38 107 40 116 2 8 10 31 17 50 8 18 16 39 18 44 1 6 4
15 5 20 2 6 22 62 45 125 23 63 45 126 50 140 4 14 12 34 16 45 4 11 8 22 8
25 2 8 77 214 87 235 4 11 20 54 35 95 14 41 54 154 87 250 l62 174 35 8 c19
4 53 10 75 13 22 4 58 10 80 15 39 9 157 29 202 35 12 2 36 6 53 10 17 4 41 8
53 10 12 2 42 6 67 9 25 4 52 8 60 11 8 2 39 7 69 10 30 3 57 7 60 9 8 5 119
19 158 20 18 1 33 4 33 7 0 4 15 7 33 7 17 0 34 1 37 2 12 4 89 12 132 14 27
0 48 3 48 6 0 3 24 6 54 8 29 1 63 5 76 7 24 5 23 6 5 -85 -3 -14 -8 -40 -11
-59 -3 -18 -8 -43 -10 -55 -2 -11 -7 -37 -10 -56 -3 -19 -10 -42 -15 -51 -4
-9 -6 -18 -4 -21 3 -2 -9 -78 -25 -169 -17 -90 -33 -180 -36 -199 -3 -19 -7
-46 -10 -60 -3 -14 -7 -40 -9 -58 -2 -18 -6 -41 -9 -50 -3 -9 -8 -37 -11 -62
-5 -37 -32 -197 -49 -285 -2 -11 -7 -42 -10 -70 -12 -87 -17 -120 -21 -135 -3
-8 -7 -35 -10 -60 -3 -25 -8 -61 -11 -80 -3 -19 -7 -51 -10 -70 -2 -19 -7 -46
-10 -60 -4 -14 -8 -43 -10 -65 -4 -40 -11 -80 -14 -80 -1 0 -3 -11 -4 -25 -4
-41 -17 -131 -22 -154 -6 -24 -12 -64 -19 -121 -3 -22 -7 -47 -10 -55 -2 -8
-7 -40 -11 -70 -11 -91 -18 -135 -31 -195 -3 -16 -7 -41 -8 -55 -2 -14 -5 -38
-8 -55 -3 -16 -8 -50 -11 -75 -3 -25 -8 -56 -11 -70 -3 -14 -7 -41 -10 -60 -3
-19 -6 -44 -9 -55 -4 -24 -14 -86 -22 -140 -3 -22 -7 -47 -9 -55 -7 -25 -19
-113 -19 -142 -1 -16 -4 -28 -7 -28 -3 0 -6 -6 -6 -12 0 -7 -3 -31 -6 -53 -12
-78 -18 -120 -23 -145 -2 -14 -7 -43 -10 -65 -2 -22 -8 -51 -11 -65 -3 -14 -7
-36 -9 -50 -11 -87 -16 -116 -29 -180 -3 -14 -7 -41 -9 -60 -4 -33 -9 -60 -22
-132 -3 -18 -7 -42 -9 -53 -10 -70 -17 -112 -20 -125 -2 -8 -7 -33 -10 -55 -3
-23 -8 -52 -10 -65 -3 -14 -8 -47 -11 -75 -4 -27 -8 -53 -10 -56 -2 -4 -6 -27
-9 -50 -3 -24 -8 -57 -12 -74 -3 -16 -7 -37 -8 -45 -2 -19 -16 -98 -22 -125
-2 -11 -6 -39 -8 -62 -2 -24 -6 -46 -8 -50 -5 -8 -9 -31 -22 -118 -3 -22 -8
-47 -10 -55 -2 -8 -7 -31 -10 -50 -3 -19 -8 -47 -10 -62 -3 -16 -8 -43 -11
-60 -3 -18 -7 -42 -9 -53 -9 -53 -17 -70 -44 -97 -56 -55 -69 -108 -57 -243 2
-22 5 -42 6 -45 1 -3 2 -9 1 -14 -1 -5 8 -28 20 -50 42 -79 145 -126 219 -101
36 12 110 96 110 125 0 8 20 54 44 102 36 72 41 90 30 99 -10 9 -13 30 -9 83
6 88 13 176 21 241 4 28 8 66 9 85 11 129 16 178 20 200 3 14 7 56 11 93 3 37
7 78 10 90 2 12 6 49 9 82 3 33 8 71 10 85 7 40 18 152 19 192 0 21 3 38 6 38
3 0 5 15 6 33 0 17 4 57 7 87 6 51 14 124 22 210 2 19 6 55 9 80 9 69 17 141
21 180 3 35 12 114 20 180 3 19 7 55 10 80 3 25 8 63 11 85 3 22 7 60 10 85 6
61 12 110 30 230 2 19 6 53 9 75 7 73 19 163 35 270 5 33 11 78 14 100 3 22
15 105 27 185 11 80 22 160 24 179 2 19 7 50 11 70 3 20 7 47 9 61 2 14 6 43
10 65 3 22 8 51 10 65 6 42 13 93 19 125 6 43 20 119 21 125 1 3 5 30 9 60 5
30 10 64 12 75 10 50 24 133 29 170 3 23 8 52 10 65 3 14 8 40 11 59 3 18 7
41 9 50 1 9 6 36 10 61 4 25 9 54 11 65 2 11 6 34 9 50 3 17 10 53 15 80 5 28
12 64 15 80 2 17 9 53 15 80 6 28 12 61 14 75 10 59 29 157 41 210 3 14 8 40
11 59 5 32 7 42 19 94 6 25 12 57 20 102 3 17 9 39 12 50 3 11 8 29 9 40 2 11
5 27 7 35 2 8 8 34 12 58 9 49 8 49 147 57 280 16 398 17 399 3 1 -26 9 -63
19 -88 5 -14 12 -41 15 -60 3 -19 13 -64 21 -100 9 -36 18 -76 20 -90 3 -14
10 -45 15 -70 6 -25 13 -56 15 -70 3 -14 9 -41 14 -60 5 -19 27 -123 50 -230
22 -107 44 -211 50 -231 5 -19 12 -51 14 -70 3 -18 19 -99 36 -179 17 -80 33
-156 36 -170 2 -14 7 -38 11 -55 3 -16 7 -37 8 -45 1 -8 12 -62 24 -120 13
-58 24 -114 26 -125 1 -11 17 -90 34 -175 18 -85 34 -171 37 -190 3 -19 8 -44
11 -55 3 -11 7 -29 9 -40 1 -11 12 -67 24 -125 12 -58 23 -116 25 -130 2 -14
9 -50 15 -80 6 -30 13 -66 16 -80 2 -14 7 -36 10 -50 3 -14 8 -43 10 -65 2
-22 5 -49 8 -60 2 -12 7 -48 11 -80 4 -33 9 -67 11 -77 1 -9 5 -38 9 -65 4
-26 9 -59 11 -73 2 -14 10 -65 18 -115 8 -49 17 -106 20 -125 3 -19 8 -48 11
-65 3 -16 10 -57 16 -90 6 -33 12 -70 15 -82 2 -13 6 -35 9 -50 3 -16 7 -37
10 -49 3 -12 7 -39 10 -60 17 -110 70 -203 132 -229 20 -9 43 -13 52 -10 9 2
19 4 23 2 4 -1 36 27 70 63 50 52 68 79 88 135 13 39 25 72 25 75 1 3 18 57
38 120 50 161 104 349 113 404 3 16 10 41 16 55 5 14 12 37 14 51 3 14 12 48
20 76 8 28 17 61 19 73 3 11 7 30 10 42 2 11 7 29 10 39 3 10 8 29 11 42 3 13
8 34 11 48 3 14 6 31 6 38 0 6 4 12 9 12 5 0 6 5 3 10 -4 6 -1 18 6 26 6 8 9
17 6 20 -3 3 3 34 13 70 10 35 19 68 20 72 0 4 3 16 6 28 3 11 6 27 8 35 1 8
7 32 13 54 10 36 37 150 48 201 13 61 49 213 69 295 9 35 18 73 20 84 3 11 9
40 15 65 12 48 18 72 25 105 3 11 12 52 21 90 9 39 19 80 21 93 3 13 18 81 35
150 17 70 32 138 34 152 2 14 4 26 6 28 1 1 3 7 4 12 1 6 3 11 5 13 1 1 3 11
5 22 1 11 8 43 15 70 6 28 14 61 16 75 3 14 11 50 19 80 21 85 77 325 90 388
3 15 7 32 9 37 1 6 7 28 11 50 12 55 12 55 14 58 2 1 5 13 7 27 2 14 12 53 20
88 9 35 17 68 18 75 2 7 8 30 14 52 6 22 13 51 16 65 2 14 12 54 21 90 9 36
18 70 19 75 16 72 30 125 35 125 3 0 7 12 8 28 1 15 23 99 49 187 25 88 54
189 64 225 9 36 31 110 49 165 17 55 31 102 31 105 1 22 224 667 270 781 11
27 29 73 41 102 12 28 27 66 34 82 49 111 75 175 75 184 0 6 5 11 11 11 5 0 8
4 4 9 -3 5 2 16 10 25 9 8 14 17 13 19 -3 4 68 114 96 151 8 10 19 15 24 12
10 -6 52 -89 57 -115 2 -9 13 -46 24 -84 11 -37 20 -70 20 -72 1 -3 1 -6 2 -7
1 -6 7 -34 12 -61 3 -15 8 -35 11 -45 3 -9 7 -28 10 -42 7 -35 14 -68 26 -120
9 -44 14 -68 26 -140 3 -19 8 -38 10 -42 2 -3 7 -30 10 -60 3 -29 8 -56 10
-59 2 -3 6 -21 9 -40 3 -19 10 -56 15 -84 5 -27 12 -70 15 -95 7 -52 13 -85
15 -85 1 0 3 -11 5 -25 14 -111 17 -136 21 -141 2 -4 6 -24 10 -45 3 -22 7
-50 9 -64 3 -14 7 -47 11 -75 7 -56 10 -79 18 -115 6 -30 18 -113 22 -155 1
-16 3 -30 4 -30 1 0 3 -11 5 -25 1 -14 5 -38 8 -55 5 -29 12 -82 22 -157 10
-76 14 -104 19 -133 5 -32 25 -177 31 -229 2 -17 9 -66 15 -109 6 -42 8 -82 5
-87 -3 -6 -2 -10 4 -10 5 0 9 -8 9 -17 0 -10 2 -39 6 -65 3 -27 8 -67 11 -90
3 -24 8 -59 10 -78 3 -19 8 -55 10 -80 3 -25 7 -56 9 -70 2 -14 7 -50 11 -80
3 -30 8 -68 10 -85 2 -16 7 -55 10 -85 4 -30 9 -66 11 -80 13 -84 25 -203 21
-214 -3 -8 -1 -18 4 -23 5 -5 11 -38 13 -73 3 -36 5 -65 6 -65 3 0 11 -52 14
-99 3 -28 5 -51 6 -51 0 0 3 -25 6 -55 10 -102 13 -125 14 -125 1 0 3 -13 5
-30 5 -60 16 -165 20 -187 2 -13 6 -54 10 -91 3 -37 8 -76 10 -86 2 -10 6 -44
9 -77 15 -147 18 -171 22 -194 2 -14 7 -56 10 -95 3 -38 9 -82 14 -97 6 -18 5
-28 -1 -28 -6 0 -7 -5 -4 -11 8 -11 17 -83 19 -136 1 -18 3 -33 6 -33 3 0 6
-17 7 -38 0 -20 4 -59 7 -87 3 -27 8 -72 11 -100 2 -27 6 -66 9 -85 2 -19 7
-57 10 -85 3 -27 8 -63 11 -80 2 -16 7 -61 11 -100 3 -38 8 -78 10 -90 2 -11
6 -45 10 -75 3 -30 7 -66 9 -80 3 -14 7 -50 10 -80 2 -30 7 -71 10 -90 5 -36
14 -118 21 -180 2 -19 6 -51 8 -70 3 -19 8 -57 11 -85 3 -27 8 -63 10 -80 2
-16 6 -50 9 -75 3 -25 8 -65 11 -90 4 -25 8 -58 10 -75 5 -42 14 -109 25 -185
11 -78 20 -151 25 -205 3 -22 7 -51 10 -65 3 -14 7 -47 10 -75 4 -27 8 -63 11
-80 7 -39 23 -158 29 -215 3 -25 8 -56 10 -70 3 -14 7 -43 10 -65 3 -22 7 -51
10 -65 3 -13 7 -42 10 -65 3 -22 8 -58 12 -80 3 -22 7 -47 9 -55 1 -8 5 -35 9
-60 4 -25 8 -56 10 -70 2 -14 4 -25 5 -25 1 0 3 -13 5 -30 4 -41 14 -105 21
-135 3 -14 7 -38 9 -55 2 -16 8 -55 14 -85 18 -96 22 -114 31 -165 16 -87 21
-110 25 -125 2 -8 7 -31 10 -50 3 -19 8 -43 11 -52 3 -9 7 -27 9 -40 3 -13 9
-44 15 -69 6 -26 13 -55 15 -65 2 -11 4 -19 5 -19 1 0 4 -12 6 -27 11 -66 68
-239 101 -305 67 -136 171 -207 298 -206 78 0 182 77 229 171 14 28 23 52 20
52 -4 0 -1 6 5 14 17 21 16 101 -2 139 -34 71 -118 122 -209 126 -14 1 -39 55
-54 116 -9 35 -14 54 -23 83 -5 18 -10 35 -10 37 0 3 -3 15 -6 28 -5 23 -11
52 -25 122 -4 22 -15 74 -23 115 -9 41 -18 86 -21 100 -2 14 -7 43 -11 65 -8
43 -11 61 -21 115 -4 19 -8 44 -11 55 -4 22 -20 111 -29 164 -3 18 -8 43 -10
55 -9 47 -36 203 -39 226 -2 14 -6 36 -9 50 -6 26 -15 84 -31 200 -2 14 -6 36
-9 50 -3 14 -8 43 -11 65 -2 22 -9 67 -15 100 -6 33 -12 76 -14 96 -2 20 -6
45 -9 55 -4 11 -9 46 -13 79 -10 83 -12 100 -14 100 -1 0 -3 11 -5 25 -2 14
-10 72 -19 129 -8 57 -15 106 -14 110 1 3 -2 17 -5 31 -4 14 -9 48 -11 75 -3
28 -5 50 -6 50 -2 0 -8 34 -13 85 -8 63 -16 121 -21 149 -3 13 -8 49 -11 80
-3 31 -8 65 -10 77 -4 19 -7 36 -21 134 -5 38 -13 95 -19 150 -6 46 -13 97
-20 140 -5 37 -13 91 -20 150 -3 19 -7 49 -9 65 -7 53 -16 119 -22 169 -3 27
-8 58 -10 70 -2 12 -7 41 -10 66 -3 25 -7 56 -10 70 -2 14 -6 48 -9 75 -4 28
-8 64 -11 80 -3 17 -7 46 -9 65 -3 31 -8 63 -31 220 -3 19 -7 51 -9 70 -2 19
-7 51 -9 70 -3 19 -8 58 -11 85 -4 28 -8 61 -10 75 -4 29 -16 122 -20 165 -2
17 -9 64 -15 105 -6 41 -13 93 -15 115 -4 38 -8 65 -19 145 -3 19 -8 55 -11
80 -4 25 -8 56 -10 70 -4 28 -16 121 -20 160 -4 38 -14 112 -19 140 -3 14 -7
48 -10 75 -4 28 -9 61 -11 75 -3 14 -7 41 -9 60 -4 29 -23 164 -41 290 -2 14
-9 61 -15 105 -6 44 -13 94 -16 110 -5 32 -10 65 -18 130 -3 22 -7 54 -10 70
-3 17 -8 48 -11 70 -4 22 -8 51 -10 65 -2 14 -9 57 -15 95 -6 39 -13 81 -15
95 -2 14 -7 43 -10 65 -3 22 -12 78 -20 125 -8 47 -16 101 -19 120 -3 19 -7
44 -10 55 -2 11 -7 42 -10 68 -4 27 -9 59 -12 70 -2 12 -6 36 -9 52 -2 17 -6
39 -9 50 -2 11 -7 42 -10 69 -4 27 -9 52 -10 55 -2 3 -7 29 -11 56 -9 65 -13
85 -19 115 -3 14 -9 41 -12 60 -4 19 -9 44 -11 55 -2 11 -6 34 -8 50 -3 17
-10 55 -16 85 -7 30 -13 64 -15 75 -1 11 -9 53 -18 92 -9 40 -18 87 -21 105
-5 29 -15 73 -31 143 -3 11 -7 31 -10 44 -3 14 -7 28 -9 32 -3 4 -7 24 -11 45
-9 58 -80 319 -109 402 -82 233 -170 335 -286 327 -188 -11 -361 -292 -572
-925 -78 -234 -117 -362 -117 -384 0 -9 -4 -16 -8 -16 -5 0 -9 -6 -9 -12 0 -7
-6 -33 -13 -58 -7 -25 -12 -47 -12 -50 0 -3 -5 -16 -10 -30 -5 -14 -11 -32
-13 -40 -2 -8 -15 -58 -30 -110 -15 -52 -29 -102 -30 -110 -2 -8 -4 -15 -5
-15 -1 0 -3 -7 -5 -15 -7 -35 -36 -146 -42 -160 -3 -8 -7 -22 -9 -30 -1 -8
-17 -67 -34 -130 -17 -63 -33 -126 -36 -140 -3 -14 -11 -44 -19 -67 -8 -23
-16 -52 -19 -65 -3 -13 -13 -50 -24 -83 -11 -33 -23 -72 -26 -88 l-6 -27 -93
5 c-50 3 -117 7 -147 9 -271 21 -568 33 -930 40 -239 5 -216 3 -218 19 -1 6
-4 26 -6 42 -3 17 -8 64 -11 105 -3 41 -8 93 -10 115 -3 22 -7 74 -9 115 -3
41 -7 91 -10 110 -3 19 -8 73 -11 120 -3 47 -8 103 -10 125 -3 22 -8 74 -10
115 -10 132 -15 194 -20 245 -2 28 -7 91 -11 140 -3 50 -7 106 -10 125 -4 37
-14 174 -19 250 -2 25 -4 45 -5 45 -1 0 -10 107 -15 195 -1 36 -4 65 -5 65 -1
0 -5 39 -14 175 -8 121 -16 209 -21 255 -5 48 -14 151 -19 220 -2 28 -8 91
-12 140 -5 50 -8 111 -9 137 0 27 -2 48 -5 48 -3 0 -5 12 -6 28 -1 40 -14 190
-20 237 -3 22 -7 67 -10 100 -2 33 -6 80 -9 105 -2 25 -7 72 -10 105 -3 33 -7
83 -11 110 -3 28 -7 68 -9 90 -2 22 -6 56 -9 75 -2 19 -8 71 -12 115 -4 44 -8
87 -9 95 -1 8 -5 40 -9 70 -3 30 -8 72 -11 93 -3 20 -7 54 -10 75 -2 20 -7 53
-9 72 -3 19 -8 53 -11 75 -4 32 -29 173 -39 220 -15 73 -65 123 -128 130 -10
2 -20 4 -23 5 -3 1 -8 3 -12 4 -5 1 -12 4 -18 7 -5 4 -17 4 -25 2z m26 -416
c1 -7 5 -25 8 -42 3 -16 8 -41 11 -55 3 -14 7 -36 11 -50 3 -14 7 -41 9 -60 2
-19 7 -46 11 -60 9 -38 13 -61 19 -105 3 -22 7 -51 10 -65 3 -14 8 -45 10 -70
3 -25 8 -56 10 -70 3 -14 7 -38 9 -55 2 -16 8 -50 12 -75 4 -25 8 -56 10 -70
1 -14 4 -41 7 -60 3 -19 8 -56 12 -81 3 -25 8 -57 10 -70 2 -13 6 -49 10 -79
3 -30 8 -71 10 -90 3 -19 7 -55 10 -80 3 -25 8 -63 11 -85 5 -41 12 -110 19
-182 4 -46 14 -134 20 -173 2 -14 6 -54 10 -90 3 -36 8 -81 10 -100 2 -19 6
-64 9 -100 4 -36 9 -83 12 -105 3 -22 7 -65 9 -95 3 -30 8 -86 11 -125 4 -38
7 -87 8 -107 1 -21 3 -38 6 -38 3 0 6 -17 6 -38 2 -52 12 -187 14 -187 1 0 3
-25 5 -55 1 -30 6 -86 9 -125 9 -85 15 -160 20 -240 3 -33 7 -80 10 -105 3
-25 8 -81 11 -125 4 -44 8 -99 11 -121 2 -23 6 -70 9 -105 9 -136 15 -206 21
-259 6 -54 10 -108 19 -225 2 -33 7 -91 10 -130 12 -133 12 -129 -16 -132 -25
-1 -27 3 -55 120 -16 67 -29 125 -29 129 0 3 -3 10 -7 14 -5 4 -8 22 -8 39 0
17 -3 35 -7 39 -9 8 -34 102 -34 126 0 8 -4 24 -9 35 -8 20 -83 255 -85 265 0
3 -3 10 -7 16 -4 6 -9 21 -12 35 -14 70 -83 213 -130 264 -35 40 -35 40 -108
40 -83 -1 -126 -20 -189 -86 -29 -30 -68 -92 -75 -119 0 -3 -8 -22 -17 -42
-10 -21 -17 -40 -17 -44 0 -3 -6 -20 -14 -37 -24 -52 -87 -256 -111 -357 -2
-8 -4 -15 -5 -15 -1 0 -3 -7 -5 -15 -6 -27 -39 -151 -50 -190 -8 -28 -27 -105
-30 -125 -2 -11 -6 -31 -9 -45 -4 -14 -9 -38 -12 -55 -6 -36 -18 -44 -64 -46
-19 0 -46 -2 -60 -4 -14 -1 -59 -5 -100 -9 -84 -7 -158 -15 -210 -22 -19 -2
-62 -6 -95 -9 -33 -3 -78 -8 -100 -11 -22 -4 -51 -8 -65 -9 -30 -3 -125 -15
-160 -20 -14 -2 -61 -9 -105 -16 -44 -6 -91 -13 -105 -14 -14 -1 -43 -5 -65
-8 -22 -4 -62 -9 -90 -12 -27 -3 -62 -8 -77 -11 -16 -2 -28 0 -28 5 0 5 18 60
41 123 22 62 41 118 42 123 2 6 6 16 10 22 5 7 10 21 12 30 4 17 48 140 62
173 3 8 7 20 9 25 3 12 75 202 110 292 13 34 24 64 24 68 0 4 6 21 14 38 17
39 28 68 31 82 2 6 12 33 23 60 56 136 102 257 102 270 0 8 5 15 11 15 5 0 7
5 4 10 -4 6 -3 16 3 23 9 12 106 256 107 269 0 3 3 10 8 14 4 4 7 16 7 26 0
10 4 18 8 18 5 0 9 6 9 13 0 11 186 488 219 564 8 17 14 33 14 36 0 2 8 22 17
43 9 22 17 41 18 44 1 3 5 14 10 25 16 39 77 190 88 215 5 14 11 30 13 35 1 6
46 111 99 235 53 124 110 259 128 300 17 41 35 77 39 78 4 2 8 10 8 17 0 7 13
42 29 77 16 34 41 90 55 123 83 183 110 242 161 350 26 55 61 129 77 165 74
162 197 385 222 402 6 4 7 8 3 8 -4 0 6 21 23 46 30 43 41 48 46 21z m-67
-3545 c13 -42 25 -81 27 -87 1 -5 19 -68 39 -140 21 -71 39 -139 41 -150 1
-11 3 -21 3 -22 1 -2 0 -4 -1 -5 -1 -2 4 -13 10 -25 7 -12 14 -35 17 -50 2
-15 9 -48 15 -73 7 -25 13 -52 15 -60 2 -8 10 -41 18 -72 8 -32 12 -60 9 -62
-4 -2 -35 -3 -70 -2 -34 0 -62 -1 -62 -4 0 -3 -39 -6 -88 -6 -48 -1 -129 -4
-179 -7 -51 -2 -91 -2 -89 2 2 3 7 22 10 41 11 69 17 94 24 104 3 6 7 16 8 21
4 23 64 246 83 310 12 39 23 77 25 85 18 69 104 280 114 280 4 0 18 -35 31
-78z m547 -829 c1 -25 13 -178 15 -189 1 -5 0 -16 -1 -24 -1 -8 -8 14 -16 50
-8 36 -17 72 -19 81 -2 9 -8 33 -13 52 -6 20 -7 38 -4 41 12 13 38 5 38 -11z
m1054 2 c36 -2 90 -6 120 -9 30 -3 87 -8 125 -11 39 -3 90 -8 115 -11 25 -4
55 -7 68 -7 27 -1 27 4 1 -87 -11 -41 -22 -82 -24 -90 -2 -8 -20 -73 -39 -145
-74 -271 -88 -320 -91 -335 -2 -8 -26 -105 -55 -215 -29 -110 -53 -204 -54
-210 -2 -5 -8 -30 -15 -55 -7 -25 -15 -56 -17 -70 -3 -14 -8 -34 -11 -45 -7
-20 -8 -24 -17 -60 -2 -11 -19 -74 -36 -140 -29 -116 -35 -136 -45 -180 -2
-11 -11 -47 -20 -80 -8 -33 -17 -69 -20 -80 -2 -11 -9 -38 -15 -60 -6 -22 -12
-47 -15 -55 -2 -8 -20 -78 -40 -155 -20 -77 -38 -147 -40 -155 -2 -8 -4 -15
-5 -15 -1 0 -3 -11 -6 -24 -2 -14 -11 -44 -19 -68 -8 -23 -17 -56 -20 -72 -3
-17 -9 -41 -15 -55 -5 -15 -7 -26 -5 -26 2 0 0 -12 -6 -27 -6 -16 -22 -68 -36
-118 -13 -49 -29 -106 -34 -125 -5 -19 -12 -46 -15 -59 -3 -13 -9 -32 -15 -43
-5 -10 -7 -18 -3 -18 3 0 1 -7 -6 -15 -7 -8 -10 -15 -7 -15 4 0 -1 -19 -9 -42
-9 -24 -17 -52 -20 -62 -8 -40 -57 -202 -65 -216 -7 -13 -9 -13 -10 0 -4 35
-37 214 -59 320 -16 77 -22 114 -24 143 0 15 -3 27 -6 27 -4 0 -6 10 -7 23 0
12 -13 81 -28 152 -14 72 -28 141 -30 155 -6 36 -21 110 -45 225 -11 55 -22
114 -25 130 -3 17 -7 41 -10 55 -11 50 -17 75 -19 95 -2 11 -6 31 -10 45 -6
26 -13 63 -22 115 -3 17 -14 68 -24 115 -17 77 -24 111 -36 190 -4 26 -12 114
-19 215 -3 33 -7 79 -10 102 -3 23 -8 68 -10 100 -3 32 -8 83 -10 113 -3 30
-7 82 -10 115 -3 33 -7 78 -10 100 -3 22 -7 76 -10 120 -3 44 -8 91 -10 105
-3 14 -7 63 -10 110 -3 47 -8 96 -10 110 -4 29 -12 115 -20 218 l-6 73 418 -6
c230 -3 447 -8 483 -10z m-3820 -339 c0 -6 -5 -17 -12 -24 -7 -7 -9 -12 -5
-12 4 0 3 -9 -3 -21 -6 -11 -13 -28 -15 -37 -3 -15 -23 -71 -127 -362 -13 -36
-26 -67 -31 -68 -4 -2 -5 -7 -2 -11 2 -5 -4 -26 -15 -48 -10 -22 -22 -53 -26
-69 -4 -16 -14 -39 -22 -51 -8 -13 -11 -23 -8 -23 4 0 1 -10 -6 -22 -7 -13
-13 -25 -14 -28 -1 -5 -7 -23 -29 -80 -25 -65 -28 -75 -29 -82 -1 -3 -4 -10
-8 -14 -5 -4 -8 -16 -8 -26 0 -10 -4 -18 -8 -18 -5 0 -9 -6 -9 -12 0 -7 -7
-29 -15 -48 -14 -30 -27 -63 -33 -80 -1 -3 -5 -14 -10 -25 -4 -11 -17 -42 -27
-70 -10 -27 -23 -59 -28 -70 -5 -11 -19 -45 -31 -75 -12 -30 -27 -68 -34 -85
-8 -16 -22 -52 -33 -80 -10 -27 -23 -59 -27 -70 -4 -11 -7 -23 -7 -27 1 -5 -3
-8 -10 -8 -6 0 -9 -3 -6 -6 5 -5 -10 -43 -78 -199 -9 -22 -18 -44 -19 -50 -2
-5 -9 -23 -16 -40 -7 -16 -13 -32 -14 -35 -1 -3 -9 -23 -20 -45 -10 -22 -19
-44 -21 -50 -1 -5 -11 -30 -22 -55 -21 -49 -35 -82 -36 -90 -1 -3 -6 -14 -12
-25 -6 -11 -21 -48 -35 -82 -13 -35 -27 -63 -31 -63 -5 0 -8 33 -9 73 -1 127
-10 216 -34 367 -4 25 -8 55 -9 68 0 12 -4 22 -7 22 -3 0 -6 6 -6 13 -1 21
-34 151 -53 207 -37 110 -127 307 -156 341 -8 8 -14 19 -14 24 0 4 -11 23 -25
41 -14 18 -25 37 -25 42 0 6 -4 12 -9 14 -9 3 -94 113 -124 160 -31 50 -37
157 -13 262 16 69 169 248 249 291 20 11 37 23 37 27 0 5 4 8 9 8 5 0 47 21
93 48 91 52 237 124 338 167 36 15 83 36 106 46 23 10 44 19 47 19 3 0 18 5
34 12 15 6 31 12 36 13 4 2 10 4 15 5 4 1 12 3 17 4 6 1 24 8 40 15 17 8 37
15 45 16 8 1 53 13 100 28 102 31 218 62 243 64 9 1 17 -4 17 -11z"/>
</g>
</svg>
