<svg xmlns="http://www.w3.org/2000/svg" version="1.1" style="fill:#f7f9fd; " x="0px" y="0px" viewBox="0 0 180 180">
			<path d="M 78.8511 22.9622 c -3.52075 3 -8.70957 7.66064 -14.9511 13.5378 c -8.84095 8.32553 -13.3771 12.3936 -17.3835 16.6463 c -5.02075 5.38618 -10.4824 11.0798 -15.8649 19.016 c -5.02129 7.27022 -12.0835 17.5053 -14.7681 32.4952 c -1.55001 8.14788 -3.64788 21.3809 3.35905 34.5319 c 8.0931 15.0436 23.257 20.492 30.7394 23.2266 c 14.4782 5.40903 26.9457 4.31223 35.601 3.41223 c 17.6213 -1.78723 30.1952 -7.98988 36.6122 -11.2388 c 14.392 -7.29946 22.9325 -15.7048 25.0537 -17.8532 c 6.94414 -7.05372 16.4979 -16.7282 15.3824 -28.925 c -0.274466 -3.11117 -1.16489 -5.57766 -1.92978 -7.31117 c -3.65797 -7.90533 -11.6234 -10.7942 -19.1622 -21.8351 c -9.467 -13.9223 8.66167 -33.0133 2.46378 -47.8649 c -2.7383 -6.61701 -8.68085 -10.1484 -10.8303 -11.6707 c -9.61915 -6.68723 -19.5452 -6.82129 -23.909 -6.90746 C 95.342 12.1292 84.5957 18.0558 78.8511 22.9622 Z">
				<animate repeatCount="indefinite" attributeName="d" dur="10s" values="      M78.8,23.2c-3.5,3-8.7,7.6-14.9,13.3c-8.9,8.3-13.5,12.4-17.5,16.6c-5,5.3-10.5,11-15.9,19c-4.9,7.2-11.9,17.7-14.5,32.8      c-1.4,8.1-3.6,21.1,3.3,34.2c7.9,14.9,22.7,20.5,30.2,23.3c14.7,5.5,27.3,4.4,36,3.5c17.8-1.8,30.5-8.1,37-11.4      c14.4-7.4,22.8-15.7,24.8-17.7c7-7.1,16.6-16.8,15.4-29c-0.3-3.1-1.2-5.6-2-7.3c-3.8-7.8-12-10.7-19.7-21.8c-9.7-13.9,9-32.9,3-47.9      c-2.7-6.7-8.7-10.3-10.8-11.8c-9.6-6.7-19.7-6.7-24-6.7C95.2,12.3,84.5,18.3,78.8,23.2z;       M78.8,23.2c-3.5,3-8.7,7.6-14.9,13.3c-8.9,8.3-13.5,12.4-17.5,16.6c-8.6,9-12.9,13.5-15.9,19c-7,12.9-6.5,25.7-6.2,32.6      c0.3,7.5,0.7,18.7,8,30.7C40,148,50.8,153.8,55,156c6.4,3.3,23.5,12.3,35.7,5.3c9-5.2,5.4-13.5,14.3-20c13.1-9.5,26.7,4.6,42.3-4.7      c9.8-5.8,16.7-18.6,15.4-29c-0.5-3.5-1.4-3.4-2-7.3c-1.8-12.1,7.2-17.3,9.3-28c3.1-16.1-11.2-35.8-25.9-41.7c-5-2-6.1-0.8-12.7-3.7      c-13.5-5.8-13.6-12.6-22.1-14.8C98.4,9.4,86.4,16.7,78.8,23.2z;       M82,8.3c-4.8,3-9.3,11.4-18.1,28.2c-5.2,9.9-5.8,12-10.2,19.5C47.4,66.7,44.3,72,40,76C27.5,87.6,16.6,81.5,8.7,89.7      c-10.8,11.1-6.6,38.7,7,55c20,23.9,57.6,20,64,18.7c0.8-0.2,5.1-1.1,11-2c6.6-1,11.4-1.2,12.7-1.3c13.9-1.1,31.1-16,40.7-27.3      c3.5-4.2,10.2-12.3,14.3-24.3c1.3-3.8,1-4.2,2.4-8c5.1-14.4,11.6-16.6,14-24c4.9-15.3-12.2-40-30.6-45.7c-5.1-1.5-7.5-0.8-12.7-3.7      c-10.8-5.9-10-14.3-18.3-19.7C104.1,1.6,90.5,3,82,8.3z;       M78.8,23.2c-3.5,3-8.7,7.6-14.9,13.3c-8.9,8.3-13.5,12.4-17.5,16.6c-5,5.3-10.5,11-15.9,19c-4.9,7.2-11.9,17.7-14.5,32.8      c-1.4,8.1-3.6,21.1,3.3,34.2c7.9,14.9,22.7,20.5,30.2,23.3c14.7,5.5,27.3,4.4,36,3.5c17.8-1.8,30.5-8.1,37-11.4      c14.4-7.4,22.8-15.7,24.8-17.7c7-7.1,16.6-16.8,15.4-29c-0.3-3.1-1.2-5.6-2-7.3c-3.8-7.8-12-10.7-19.7-21.8c-9.7-13.9,9-32.9,3-47.9      c-2.7-6.7-8.7-10.3-10.8-11.8c-9.6-6.7-19.7-6.7-24-6.7C95.2,12.3,84.5,18.3,78.8,23.2z"/>
			</path>
			</svg>