<?xml version="1.0" encoding="utf-8"?>
<!-- Generator: Adobe Illustrator 26.0.2, SVG Export Plug-In . SVG Version: 6.00 Build 0)  -->
<svg version="1.1" id="Layer_1" xmlns="http://www.w3.org/2000/svg" xmlns:xlink="http://www.w3.org/1999/xlink" x="0px" y="0px"
	 viewBox="0 0 119.1 154" style="enable-background:new 0 0 119.1 154;" xml:space="preserve">
<style type="text/css">
	.st0{fill:#F26440;}
</style>
<g>
	<path class="st0" d="M108.6,146L108.6,146c-2-7.5-4.6-26.2-7.9-56.4c-3.9-35.1-7.4-55.3-9-56.9c-0.8,0.8-1.6,2-2.2,3.6
		c-2.4,5.3-5.2,13.5-8,24.2c-3.5,14.2-10.1,45.1-12.6,50.1c-0.6,0.8-1.2,1.2-1.7,1.2c-1,0-1.7-0.5-1.8-1.6
		C59.4,78,55.2,58.2,52.6,50.7v0.1h-0.1c-1.1,2.6-2,5.5-2.7,8.6c0,0.1,0,0.1-0.1,0.1c-3.6,15.9-6.5,34.5-8.7,55.8
		c-1,8.6-1.5,13.6-1.5,14.9c0.3,0,0.3,0,0.3,0.2c-1.5,2.9-0.9,2.7-2.1,3.8c-0.3,0.2-0.7,0.2-1.2,0.2c-0.7,0-1.8-1-1.8-1.2l-0.3-0.6
		l-0.2-2c0-1,0.4-1.7,1.2-2.3c1.3-7,4.1-23.9,8.2-50.6c1.3-7.8,2.4-14,3.4-18.7c1-3.3,1.3-5.6,2.9-9.3c0.5-1.4,1.7-2.7,3.3-2.7
		c1.3,0,1.4,0.7,1.9,1.2c0.3,0.6,0.4,0.9,0.6,1.3c0.6,1.6,1.1,3.1,1.6,4.7c3.2,12.1,6.7,28.5,10.5,49c2.4-8,4.5-16,6.4-23.7
		c3.1-12.1,5-19,5.5-20.4c4.1-15.6,7.5-27.5,11.4-28.9c0.3-0.1,0.6-0.2,1-0.2c1.4,0.2,2.5,1.8,2.5,2.2c2.3,4,5.9,23.9,10.1,57.1
		c3.2,23.3,4.7,35.4,7.4,49.4c0.7,3.8,1.3,6.2,1.8,7.3c1.7,0,3,1.1,3,2.6c0,0.5-0.3,0.9-0.3,1.2c0,0.1,0,0.1-0.1,0.1
		c-0.3,1-1.6,2.4-3.1,2.4C110.1,152.2,109.2,148.6,108.6,146z"/>
	<path class="st0" d="M1.7,121.7c0.1-0.8,0.3-1.5,0.9-2c1-0.8,3.1-4.7,6-11.4c1.5-3.5,2.4-5.8,2.6-7c0.3-1.2,0.4-3,0.4-5.5
		c0-5.8-1.7-10.8-5.2-15c-0.3-0.5-0.6-1-0.8-1.5c-0.3-0.5-0.4-1.1-0.4-2c0-2.7,1.5-5,4.6-6.8c4.9-2.9,10.2-4.9,16.1-5.9l12.9-33.7
		c4.1-10.3,7-17.1,8.5-20.3c0.6-1.8,1.9-4.2,4.2-7.2c0.1-0.1,0.7-0.5,1.7-1l0.3-0.1c0.1,0,0.1,0.1,0.3,0.1c0.1,0,0.3,0,0.3,0.1
		c0.1,0,0.2,0.1,0.3,0.1l0.1-0.1c0.6,0.2,1,0.5,1.3,0.9c0.7,1.2,1.9,11.7,3.5,31.5c1,12.7,1.7,21.4,2.2,26.4c6.1,0,12,0.3,18,0.8
		c0.2,0,0.3,0.1,0.3,0.3c0,0.3-0.1,0.4-0.3,0.4c-4.7-0.6-9.3-0.8-14-0.8L61.7,62l2.1,22.8c0.6,8.6,1.7,16.6,3.2,23.9l0.1,0.1
		c0.2-0.1,0.4-0.1,0.6-0.1c0.8,0.1,1.1,0.5,1.1,1.1l-0.1,0.4c-0.3,1.1-0.8,1.7-1.8,1.9c-0.1,0-0.1,0-0.2-0.1c-0.4,0-0.8-0.3-1.1-0.8
		c-0.3-0.5-0.6-1-0.7-1.7c-1.4-7-2.4-14.2-2.9-21.6L59.8,62c-5.4,0.1-10.4,0.3-15,0.8c-4.7,0.5-9.8,1.3-15.4,2.4l-0.8,2.4
		c-2.6,7.2-5,13.7-7,19.8c-3,9.1-6.7,18.9-10.9,29.2c-1.5,3.1-2.6,5.2-3.3,6.4c-0.1,0-0.2,0.1-0.3,0.2c-0.1,0.2-0.3,0.3-0.4,0.5
		c-0.2,0-0.3,0.1-0.4,0.1c-0.3,0.3-0.9,0.6-1.6,0.6C2.6,124.1,1.7,123.3,1.7,121.7z M25.3,66.2C20,67.4,15.2,69.3,10.8,72
		c-1,0.6-1.8,1.4-2.5,2.3c-0.8,0.9-1.1,1.9-1.1,2.9c0,0.8,0.1,1.3,0.2,1.6C7.5,79,7.8,79.5,8.2,80c3.4,4,5.2,9.5,5.2,16.6
		C19.1,83,23.1,72.9,25.3,66.2z M32.5,63.3c9.1-1.4,18.2-2.1,27.2-2.2l-1.8-21.4c-1.4-15.5-2.8-26.4-4.2-32.6
		c-1.1,1.7-2.2,3.5-3.1,5.4c-4,8.4-7.7,17-11.1,25.8c-4.2,10.6-7.4,19.1-9.6,25.3L32.5,63.3z"/>
</g>
</svg>
